<svg width="55" height="64" viewBox="0 0 55 64" fill="none" xmlns="http://www.w3.org/2000/svg">
<path fill-rule="evenodd" clip-rule="evenodd" d="M33.7256 26.0734C33.7075 26.0734 33.7437 26.0734 33.7256 26.0734C38.5771 27.022 42.7781 29.0186 45.7775 31.7019C48.786 34.3941 50.5748 37.7549 50.5748 41.4139C50.5748 41.6488 50.5658 41.8747 50.5568 42.1005C53.2581 37.8543 54.821 32.8131 54.821 27.4105C54.821 12.2778 42.5432 0 27.4105 0C12.2778 0 0 12.2778 0 27.4105C0 32.8131 1.56296 37.8543 4.26426 42.1005C4.24619 41.8656 4.23715 41.6398 4.23715 41.4049C4.23715 34.1141 11.3653 27.9616 21.0864 26.0644C16.795 23.7967 13.8679 19.2795 13.8679 14.0847C13.8679 6.60418 19.93 0.542067 27.4105 0.542067C34.891 0.542067 40.9531 6.60418 40.9531 14.0847C40.9531 19.2795 38.026 23.7967 33.7346 26.0644L33.7256 26.0734ZM35.0085 57.441L34.9001 56.655L33.0932 56.0045L29.4071 58.489L35.8396 63.6657C35.8396 63.6657 36.3094 63.1959 35.8939 62.6177C35.4783 62.0395 34.6923 62.0937 34.6381 61.6782C34.5839 61.2626 34.0147 60.7928 34.0147 60.7928L33.6985 57.8656L34.0689 57.3416L35.0085 57.45V57.441ZM26.6335 54.0621L25.3507 58.2993L24.6731 58.8233L18.2405 64C18.2405 64 17.7708 63.5302 18.1863 62.952C18.6019 62.3738 19.3879 62.428 19.4421 62.0124C19.4963 61.5968 20.0655 61.127 20.0655 61.127L20.3817 58.1999L20.0113 57.6759L19.0717 57.7843L19.1801 56.9983L20.978 56.3478L17.2919 53.8634L20.1287 53.4568C20.0474 52.5985 20.0926 51.5957 20.1649 51.2614C20.3727 50.3128 20.1468 49.8882 20.3004 48.253C20.3817 47.4489 20.5805 46.4099 20.6256 45.7595C20.7069 44.6663 21.5652 44.0068 22.6584 44.0068C22.9114 44.0068 23.4173 43.9345 23.5799 43.8442C23.7425 43.7538 24.6189 43.3382 24.8267 43.1304C25.0344 42.9226 25.3778 42.7871 25.3778 42.7871C25.3778 42.7871 25.5133 41.8656 25.4049 41.6398C25.2693 41.3778 25.2242 41.0977 25.1248 41.0254C24.9893 40.917 25.1429 40.5104 24.9441 40.5647C24.9441 40.5647 24.8086 40.7996 24.6731 40.5376C24.6189 40.4382 24.5827 40.2846 24.5737 40.1581C24.5466 39.9051 24.4924 39.8509 24.4382 39.598C24.393 39.345 24.4472 39.3631 24.3569 39.0017C24.2665 38.6313 24.5827 38.7216 24.5827 38.5771C24.5827 38.4416 24.5105 37.9266 24.4833 37.7098C24.4562 37.502 24.4472 36.987 24.5556 36.7431C25.6307 34.2496 28.8651 33.7527 30.2112 36.7431C30.3196 36.987 30.3015 37.502 30.2835 37.7098C30.2564 37.9176 30.0486 38.4325 30.0486 38.5771C30.0486 38.7126 30.3648 38.6313 30.2744 39.0017C30.1841 39.3721 30.2383 39.345 30.1931 39.598C30.1479 39.8509 30.0847 39.9051 30.0576 40.1581C30.0486 40.2846 30.0124 40.4382 29.9582 40.5376C29.8227 40.7996 29.6872 40.5647 29.6872 40.5647C29.4433 40.4924 29.4794 41.4049 29.3619 41.6398C29.2445 41.8747 29.3891 42.7871 29.3891 42.7871C29.3891 42.7871 29.7324 42.9226 29.9402 43.1304C30.1479 43.3382 31.0243 43.7538 31.1869 43.8442C31.3495 43.9345 31.8555 44.0068 32.1084 44.0068C33.2016 44.0068 34.0599 44.6663 34.1412 45.7595C34.1954 46.4099 34.3851 47.4489 34.4664 48.253C34.62 49.8882 34.3941 50.3038 34.6019 51.2614C34.629 51.3969 34.6561 51.6409 34.6742 51.93L36.5263 51.7764L37.3123 52.5624L29.4704 57.4771L28.7657 54.0802H26.6335V54.0621ZM39.5889 51.9842C39.5528 51.0085 39.7064 49.9605 39.5076 47.9548C39.3721 46.5726 39.0378 44.8018 38.9475 43.6906C38.8029 41.8114 37.3484 40.6911 35.4692 40.6911C35.0356 40.6911 34.1683 40.5737 33.8882 40.4111C33.6081 40.2485 32.1084 39.5438 31.7561 39.1824C31.4037 38.83 30.8075 38.5861 30.8075 38.5861C30.8075 38.5861 30.5726 37.0141 30.7713 36.6166C30.9791 36.2101 30.9068 34.6471 31.3315 34.7736C31.3315 34.7736 31.5754 35.1801 31.8012 34.7284C31.8916 34.5568 31.9548 34.2857 31.9729 34.0689C32.009 33.6352 32.1175 33.5359 32.1988 33.1022C32.2801 32.6686 32.1807 32.7047 32.3343 32.0723C32.4879 31.4489 31.9548 31.5935 31.9548 31.3495C31.9548 31.1146 32.3162 30.2293 32.3523 29.8679C32.3885 29.5155 32.4246 28.6302 32.2349 28.2055C29.9221 23.092 24.393 23.9413 22.559 28.2055C22.3783 28.6302 22.4054 29.5065 22.4416 29.8679C22.4777 30.2202 22.6042 31.1056 22.6042 31.3495C22.6042 31.5844 22.0711 31.4399 22.2247 32.0723C22.3783 32.6957 22.288 32.6595 22.3603 33.1022C22.4416 33.5359 22.55 33.6352 22.5861 34.0689C22.6042 34.2857 22.6674 34.5477 22.7578 34.7284C22.9836 35.1801 23.2276 34.7736 23.2276 34.7736C23.5709 34.6742 23.2998 35.3789 23.5347 35.5596C23.7064 35.6951 23.7877 36.1558 24.0136 36.6166C24.2123 37.0141 23.9774 38.5861 23.9774 38.5861C23.9774 38.5861 23.3811 38.821 23.0288 39.1824C22.6765 39.5347 21.1677 40.2485 20.8967 40.4111C20.6166 40.5647 19.7493 40.6911 19.3156 40.6911C17.4365 40.6911 15.9819 41.8204 15.8374 43.6906C15.7561 44.8108 15.4128 46.5726 15.2772 47.9548C15.0785 49.9785 15.2411 50.9994 15.1959 51.9842V51.9932C13.5968 51.1801 12.0881 50.2586 10.7058 49.1926C10.7058 49.1926 10.7058 49.1926 10.7058 49.1835C10.6335 47.5031 10.7239 45.8046 10.8684 45.1632C11.3473 42.9769 10.8233 42.0282 11.1846 38.2789C11.3653 36.4269 11.8171 34.0599 11.9255 32.5692C12.1152 30.0576 14.0666 28.5488 16.5782 28.5488C17.1564 28.5488 18.3219 28.3862 18.6923 28.1784C19.0627 27.9706 21.0683 27.013 21.5472 26.5432C22.026 26.0644 22.812 25.7482 22.812 25.7482C22.812 25.7482 23.1282 25.2151 22.8662 24.6911C22.6042 24.1581 22.7668 23.5438 22.7216 22.8571C22.6674 22.1705 22.3964 22.5229 22.3964 22.044C22.3964 21.5652 22.7126 21.3755 22.3783 21.1225C22.0621 20.8786 22.4235 19.939 21.9627 20.0655C21.9627 20.0655 21.6375 20.6166 21.3394 20.0113C21.2219 19.7764 21.1316 19.4241 21.1045 19.135C21.0503 18.5568 20.9057 18.4303 20.8063 17.843C20.6979 17.2648 20.8334 17.31 20.6166 16.4698C20.4088 15.6296 21.1225 15.8283 21.1225 15.5031C21.1225 15.1869 20.7973 14.5816 20.7431 14.1118C20.6889 13.633 20.6889 12.4766 20.9057 11.8893C21.1135 11.3111 21.2219 11.6273 21.1677 10.7781C21.1135 9.92885 21.6465 9.45907 21.8001 9.03445C21.9627 8.60983 22.9114 8.34783 23.2276 8.08583C23.5438 7.82383 23.7064 7.5528 24.1762 7.345C24.655 7.13721 24.1762 6.97459 24.1762 6.49577C24.1762 6.01694 24.6008 6.01694 24.6008 6.01694C24.6008 6.01694 24.4111 5.94466 24.3388 4.95991C24.2665 3.97516 24.6008 4.11067 24.5466 3.58667C24.4924 3.05364 24.7544 2.84585 25.179 2.52964C25.6036 2.21344 26.0192 2.01468 26.7149 2.32185C27.1485 2.51158 27.6002 2.51158 28.0339 2.32185C28.7295 2.01468 29.1451 2.21344 29.5697 2.52964C29.9944 2.84585 30.2564 3.06268 30.2022 3.58667C30.1479 4.11971 30.4822 3.97516 30.4099 4.95991C30.3377 5.94466 30.1479 6.01694 30.1479 6.01694C30.1479 6.01694 30.5726 6.01694 30.5726 6.49577C30.5726 6.97459 30.0937 7.12818 30.5726 7.345C31.0514 7.5528 31.205 7.82383 31.5212 8.08583C31.8374 8.34783 32.786 8.60983 32.9486 9.03445C33.1112 9.45907 33.6352 9.92885 33.581 10.7781C33.5268 11.6273 33.6352 11.3111 33.843 11.8893C34.0508 12.4675 34.0508 13.633 34.0057 14.1118C33.9514 14.5906 33.6262 15.1869 33.6262 15.5031C33.6262 15.8193 34.349 15.6296 34.1321 16.4698C33.9243 17.31 34.0508 17.2558 33.9424 17.843C33.834 18.4212 33.6985 18.5477 33.6443 19.135C33.6172 19.4241 33.5268 19.7764 33.4094 20.0113C33.1022 20.6166 32.786 20.0655 32.786 20.0655C32.3252 19.93 32.6866 20.8696 32.3704 21.1225C32.0452 21.3755 32.3523 21.5652 32.3523 22.044C32.3523 22.5229 32.0813 22.1705 32.0271 22.8571C31.9729 23.5438 32.1446 24.1581 31.8826 24.6911C31.6206 25.2242 31.9368 25.7482 31.9368 25.7482C31.9368 25.7482 32.7318 26.0644 33.2016 26.5432C33.6804 27.022 35.6861 27.9706 36.0565 28.1784C36.4269 28.3862 37.5923 28.5488 38.1705 28.5488C40.6821 28.5488 42.6335 30.0576 42.8233 32.5692C42.9407 34.0689 43.3924 36.4269 43.5641 38.2789C43.9255 42.0282 43.4015 42.9769 43.8803 45.1632C44.0249 45.8046 44.1152 47.5031 44.0429 49.1835V49.1926C42.6426 50.2857 41.1248 51.1892 39.5528 52.0023L39.5889 51.9842Z" fill="url(#paint0_linear_704_16)"/>
<defs>
<linearGradient id="paint0_linear_704_16" x1="27.4105" y1="-6.18008" x2="27.4105" y2="64" gradientUnits="userSpaceOnUse">
<stop stop-color="#E52E22"/>
<stop offset="1" stop-color="#EE731B"/>
</linearGradient>
</defs>
</svg>
