<svg width="99" height="98" viewBox="0 0 99 98" fill="none" xmlns="http://www.w3.org/2000/svg">
<g filter="url(#filter0_dddddddd_170_39)">
<path d="M70.0015 46.7079C69.9801 50.7886 68.7505 54.7717 66.4678 58.1542C64.185 61.5367 60.9515 64.1671 57.1752 65.7137C53.3989 67.2603 49.2492 67.6538 45.2495 66.8442C41.2499 66.0347 37.5797 64.0584 34.7021 61.165C31.8245 58.2716 29.8684 54.5908 29.0808 50.5868C28.2931 46.5828 28.7092 42.4351 30.2765 38.6674C31.8437 34.8996 34.4919 31.6806 37.8869 29.4164C41.2819 27.1522 45.2715 25.9443 49.3522 25.9453C52.0732 25.946 54.7674 26.4845 57.2798 27.5295C59.7922 28.5746 62.0733 30.1056 63.9921 32.035C65.9109 33.9643 67.4296 36.2537 68.4608 38.7718C69.4921 41.2898 70.0157 43.9869 70.0015 46.7079ZM29.6585 46.7079C29.6766 50.604 30.8487 54.4074 33.0267 57.6378C35.2048 60.8682 38.2912 63.3809 41.8962 64.8586C45.5012 66.3362 49.4632 66.7127 53.282 65.9404C57.1007 65.168 60.605 63.2814 63.3524 60.5189C66.0999 57.7564 67.9672 54.2418 68.7187 50.4189C69.4702 46.5959 69.0721 42.6362 67.5748 39.0393C66.0774 35.4424 63.5479 32.3697 60.3056 30.2093C57.0634 28.0489 53.2537 26.8977 49.3576 26.9009C46.7612 26.8929 44.1889 27.4 41.7897 28.3926C39.3904 29.3851 37.2119 30.8437 35.3799 32.6837C33.548 34.5237 32.0991 36.7085 31.117 39.1121C30.1349 41.5156 29.6392 44.0899 29.6585 46.6863L29.6585 46.7079Z" fill="#FFD600"/>
<path d="M48.8174 20.0122L50.1455 23.8451C48.8013 24.1421 48.1912 24.1421 47.9861 22.7654C47.7359 21.5395 47.2697 20.3677 46.6094 19.3049C45.3192 16.8918 44.8387 14.387 46.3017 12.0009C48.3207 8.70777 48.2182 5.39854 47.0521 1.93271C46.8361 1.30964 46.7106 0.65873 46.6796 0C48.6069 3.56301 50.6961 7.13687 48.9578 11.3909C47.9105 13.9498 48.2668 16.0659 49.9403 18.2684C50.9877 19.6505 51.5599 21.4157 52.2293 23.0514C52.3427 23.316 51.9324 23.8019 51.765 24.1852C51.4073 23.9458 51.0886 23.6527 50.8203 23.3161C50.1887 22.1878 49.6434 21.0163 49.0658 19.8556L48.8174 20.0122Z" fill="#FFD600"/>
<path d="M5.56445 31.2439C9.17605 30.8174 12.8308 30.2234 16.0322 32.6689C16.8527 33.2897 17.6517 33.943 18.4561 34.5908C18.9768 35.0155 19.5908 35.3108 20.2476 35.4525C20.9045 35.5942 21.5855 35.5784 22.235 35.4061C23.8476 35.0406 25.481 34.7738 27.126 34.6072C28.0222 34.5316 28.9453 34.8607 29.8955 35.0065C29.8577 36.151 29.5338 36.4748 28.4919 36.4154C27.0826 36.3785 25.6767 36.5718 24.3296 36.9877C25.323 36.9877 26.3163 36.9499 27.3096 36.9877C28.8266 37.0633 29.0101 37.4574 28.2921 38.6073C26.3865 38.6073 24.5672 38.5479 22.7587 38.6073C20.2754 38.7098 17.9918 38.0944 16.5288 36.0754C14.1912 32.8363 10.9899 31.7026 7.24338 31.4975C6.7953 31.4705 6.35264 31.3896 5.90997 31.3248C5.79282 31.3071 5.67728 31.28 5.56445 31.2439Z" fill="#FFD600"/>
<path d="M29.0342 4.71094C32.6134 7.30222 35.8417 10.1093 35.7067 15.0651C35.6473 17.2245 36.727 18.7363 38.6219 19.8376C39.9751 20.698 41.2408 21.6889 42.4009 22.7959C42.8662 23.3306 43.265 23.9198 43.5885 24.5504C42.7302 25.3062 42.2983 25.1981 41.6613 24.3775C41.0243 23.5569 39.9824 22.9361 39.124 22.2181L38.9243 22.472L41.5263 25.3818L40.0795 25.9217C38.6813 24.572 37.4774 23.3412 36.198 22.1968C34.3193 20.5124 32.9589 18.461 33.407 15.9453C34.125 11.7668 32.4082 8.62488 29.8223 5.6881C29.5578 5.39658 29.3041 5.06184 29.0342 4.71094Z" fill="#FFD600"/>
<path d="M74.7604 55.8841C73.1948 55.6735 71.478 56.6021 69.9449 55.3442L70.4847 54.0594C72.4498 54.0594 74.2636 54.135 76.0667 54.0594C77.3705 53.9384 78.6833 54.1611 79.874 54.7058C81.0647 55.2505 82.0918 56.098 82.8527 57.1636C84.7476 59.7387 87.3227 60.759 90.3404 61.0667C91.343 61.1277 92.3292 61.35 93.261 61.7252L90.2432 61.9142C87.0041 62.1193 83.981 61.4877 81.6056 59.0583C79.8025 57.212 77.7511 57.0123 75.3163 57.5737C73.578 57.9786 71.7102 57.8544 69.9178 57.8706C69.6425 57.8706 69.378 57.3687 69.0703 57.0987C69.4265 56.9008 69.8079 56.7517 70.204 56.6559C71.7318 56.4993 73.2649 56.4131 74.7981 56.2998L74.7604 55.8841Z" fill="#FFD600"/>
<path d="M60.4899 27.1709C60.0365 26.6311 59.5614 26.2857 59.5236 25.9186C59.3724 24.3908 59.3509 22.8522 59.2807 21.319L58.7408 21.319L58.7408 25.9834L57.1213 25.2923C57.1213 23.284 57.1699 21.4269 57.1213 19.5698C57.0403 17.0811 57.7637 14.8407 59.7558 13.3831C62.9193 11.0672 64.0745 7.93065 64.2581 4.20568C64.2838 3.63953 64.4023 3.08141 64.609 2.55371C65.0841 6.70516 65.4998 10.835 62.1149 14.1821C60.4954 15.8017 60.0257 17.6426 60.5547 19.9586C60.9866 21.8319 60.884 23.8346 60.9704 25.7781C60.8739 26.2619 60.7123 26.7305 60.4899 27.1709Z" fill="#FFD600"/>
<path d="M66.8602 32.6126C66.7847 32.1807 66.5417 31.7003 66.6551 31.3278C67.0816 29.9026 67.6268 28.5152 68.1235 27.1116L67.6808 26.9495C67.3902 27.8823 67.0514 28.7997 66.6659 29.6975C66.4219 30.1398 66.0439 30.4933 65.5862 30.7071C65.4458 30.7772 64.8196 30.2805 64.7656 29.9782C64.7844 29.5448 64.9125 29.1232 65.1381 28.7527C65.6286 27.7538 66.0629 26.7283 66.4391 25.681C67.3245 22.6201 69.052 20.3742 72.2479 19.5914C75.3305 18.8356 77.2956 16.8544 78.6776 14.1336C79.1149 13.2698 79.6115 12.433 80.0866 11.5801L80.4159 11.6987C80.2269 12.2817 80.038 12.8648 79.876 13.4532C78.6884 17.2322 76.7071 20.3419 72.804 21.8805C70.9091 22.6309 70.1047 24.2018 69.851 26.1993C69.6374 27.6575 69.2756 29.09 68.7713 30.4748C68.4905 31.2792 67.8481 31.9485 67.3677 32.6827L66.8602 32.6126Z" fill="#FFD600"/>
<path d="M14.8686 15.4443C18.5234 16.686 22.4265 17.6738 24.1756 21.6795C25.3849 24.4543 27.1988 25.9443 30.2327 26.1657C32.28 26.2318 34.219 27.1005 35.6312 28.5842C35.1832 29.4696 34.7567 29.5559 33.8336 29.0808C32.6837 28.4924 31.3341 28.2818 30.0546 27.9039L29.925 28.3251C30.6354 28.5044 31.3333 28.7298 32.0143 28.9999C32.6842 29.3543 33.3298 29.7529 33.9469 30.1929L32.9644 31.1216C31.0479 30.355 29.3474 29.5992 27.5983 28.9622C25.2769 28.1416 23.4631 26.6515 22.9178 24.3139C21.9677 20.2488 19.2684 17.9977 15.7594 16.3511C15.3815 16.173 15.036 15.9247 14.6797 15.7087L14.8686 15.4443Z" fill="#FFD600"/>
<path d="M73.6791 35.6922L70.3914 38.6505L69.8516 37.0038C71.2066 35.5948 72.4752 34.3641 73.6305 33.0414C75.4282 31.0062 77.674 29.9103 80.3247 30.3422C83.9201 30.9306 86.7111 29.554 89.2916 27.3406C89.864 26.8225 90.5031 26.3832 91.1919 26.0342C88.5952 29.3327 85.9391 32.5825 81.2154 32.5717C78.6511 32.5717 76.9938 33.7161 75.6766 35.9025C74.7588 37.4303 73.3336 38.672 72.0595 39.9622C71.8436 40.1782 71.239 40.0056 70.8125 40.011C70.9669 39.6234 71.1604 39.2524 71.3901 38.9041C72.2215 37.8784 73.096 36.8904 73.9544 35.8917L73.6791 35.6922Z" fill="#FFD600"/>
<path d="M3 48.9625C6.64939 47.343 10.0181 45.1836 14.1479 46.7222C14.65 46.9111 15.1736 47.0513 15.6757 47.2349C16.4497 47.5478 17.2936 47.6468 18.119 47.5214C18.9444 47.396 19.7209 47.051 20.367 46.5224C21.3749 45.7127 22.4598 45.0039 23.6061 44.4062C24.7637 43.9446 25.9525 43.5657 27.1637 43.2725L27.1637 44.606L22.6181 47.0298L22.7909 47.3915C23.688 46.9249 24.6129 46.514 25.5604 46.1607C26.8884 45.7558 27.1799 46.1067 26.964 47.2404C25.258 47.98 23.6871 48.5738 22.1971 49.3242C19.7894 50.528 17.279 50.8953 14.9846 49.4647C11.67 47.397 8.37688 47.5913 4.93264 48.8059C4.43058 48.9841 3.90153 49.1029 3.38327 49.2324C3.34008 49.2378 3.25913 49.1407 3 48.9625Z" fill="#FFD600"/>
<path d="M34.4286 90.1242C33.6134 85.6867 33.6134 81.4274 37.2034 78.0156C38.661 76.6336 38.8769 74.8953 38.4181 72.9302C38.0721 71.226 37.8662 69.4963 37.8026 67.7584C37.8547 67.1128 38.0002 66.478 38.2345 65.8742L38.7744 65.7393C39.0549 66.1508 39.263 66.6072 39.3898 67.0889C39.5086 68.4655 39.4978 69.8584 39.5356 71.2458L39.9782 71.2458C39.9087 70.3341 39.9231 69.4177 40.0214 68.5086C40.1186 67.9688 40.6801 67.1483 41.0202 67.1537C42.0081 67.1537 41.8191 67.9041 41.7165 68.7084C41.5924 70.0426 41.5924 71.3855 41.7165 72.7196C41.8785 75.2245 41.4412 77.5782 39.352 79.1222C35.9833 81.5785 34.7957 84.9472 34.6122 88.8827C34.5716 89.2994 34.5103 89.7137 34.4286 90.1242Z" fill="#FFD600"/>
<path d="M84.079 77.2607C80.0139 76.0623 76.0622 74.6909 74.2537 70.2696C73.3468 68.0562 71.7596 66.9226 69.3519 66.7012C67.1115 66.4961 64.9575 65.8915 63.2246 64.1586C63.6295 63.4352 63.894 63.2354 64.774 63.6996C66.1251 64.3349 67.5589 64.7766 69.0333 65.0116C67.7755 64.0344 65.8968 64.1802 64.9467 62.4257L65.9616 61.5674C67.3057 62.2284 68.6864 62.8123 70.0969 63.3164C73.2172 64.2341 75.4954 66.0156 76.235 69.2547C77.0394 72.6504 79.5065 74.4752 82.3569 75.976L84.2247 76.9531L84.079 77.2607Z" fill="#FFD600"/>
<path d="M69.8825 88.0344C66.8647 85.821 63.8901 83.5862 63.4043 79.5157C63.3447 79.1584 63.3069 78.7979 63.2909 78.436C63.2909 75.6504 62.1356 73.7285 59.5821 72.4436C57.7575 71.5259 56.1163 70.2032 55.4307 68.0384C56.0893 67.4985 56.4726 67.4986 57.0502 68.2706C57.8657 69.2463 58.8516 70.0658 59.96 70.6891C59.4202 70.0467 58.8803 69.4151 58.3405 68.7511C57.3363 67.4555 57.5253 67.029 58.8803 66.8076C60.2461 68.1464 61.4284 69.4095 62.724 70.5486C64.6297 72.2275 65.8552 74.3277 65.4665 76.8057C64.8348 80.8491 66.3572 83.9748 68.9431 86.8198C69.2832 87.2031 69.5694 87.6295 69.8825 88.0344Z" fill="#FFD600"/>
<path d="M27.8367 52.1885L28.2308 53.2413L24.8837 57.2361L25.105 57.4415C25.85 56.7289 26.5464 55.9675 27.34 55.325C28.4575 54.4127 28.776 54.5694 29.0352 55.7463C27.5884 57.2417 26.228 58.5696 24.9593 59.9786C23.4477 61.6575 21.5367 62.7049 19.3665 62.3594C14.9667 61.663 11.6088 63.3959 8.56948 66.2409C8.32362 66.4754 8.01352 66.6314 7.67871 66.689C10.1296 63.6821 12.4996 60.5725 16.8562 60.2108C17.396 60.1677 17.9359 60.1081 18.4757 60.0811C19.3937 60.054 20.2881 59.7838 21.0676 59.2983C21.8472 58.8127 22.4841 58.129 22.9133 57.3171C23.9362 55.8074 25.0906 54.3911 26.3629 53.0847C26.8115 52.7208 27.3072 52.4193 27.8367 52.1885Z" fill="#FFD600"/>
<path d="M18.7744 81.1945C19.7407 77.1133 20.9338 73.129 25.2526 71.3583C27.8223 70.2786 28.9236 68.4595 29.2206 65.8196C29.4581 63.7304 30.0195 61.6952 31.7632 60.0811L32.4866 60.8637C31.909 62.5642 31.4069 64.0542 30.8671 65.5441L31.1856 65.6738L33.0967 61.9218C34.3383 62.5966 34.538 63.1149 33.7661 64.0543C33.2396 64.7753 32.8716 65.5995 32.6864 66.4728C31.747 70.1438 29.6362 72.5569 25.8357 73.4368C23.5143 73.9767 21.9758 75.5962 20.8259 77.6423C20.1457 78.8245 19.4546 80.0014 18.7744 81.1945Z" fill="#FFD600"/>
<path d="M52.0342 92.7423C50.2743 89.0983 48.2067 85.5028 50.0044 81.1948C50.5377 80.0977 50.7201 78.8629 50.5269 77.6584C50.3337 76.4539 49.7743 75.3381 48.9247 74.4628C47.4787 72.9037 46.6663 70.8614 46.6465 68.7351C47.5696 68.3788 47.8396 68.6378 48.1149 69.5016C48.6 70.7485 49.1737 71.959 49.8316 73.124L50.2149 72.9352C49.7765 72.0689 49.4152 71.1657 49.1352 70.236C49.0326 69.7879 49.3241 68.8918 49.675 68.773C50.4686 68.4869 50.6954 69.0429 50.8681 69.8527C51.1611 71.0237 51.6153 72.1483 52.2178 73.1944C53.6214 75.8396 53.9453 78.5551 52.3905 81.1572C50.5874 84.1749 50.7008 87.1927 51.7697 90.3346C52.0234 91.085 52.2177 91.857 52.4391 92.6182L52.0342 92.7423Z" fill="#FFD600"/>
<path d="M95.9998 43.6642C91.924 45.8236 88.0478 47.6104 83.5833 45.613C81.4887 44.6791 79.7503 45.3701 77.958 46.601C76.3765 47.5902 74.7066 48.4305 72.9698 49.1112C72.6675 49.2462 72.1277 48.8465 71.7012 48.69C71.9952 48.393 72.319 48.1272 72.6675 47.8966C73.8336 47.2541 75.0266 46.6602 76.2089 46.0448L76.0146 45.667C75.2845 46.075 74.529 46.4357 73.7526 46.7467C73.2128 46.9249 72.4894 47.0705 72.1331 46.8221C71.8308 46.6224 71.9279 45.8128 71.8901 45.5645C73.6284 44.8195 75.167 44.2525 76.6138 43.5129C79.1943 42.1957 81.8072 41.8933 84.2959 43.4697C87.6322 45.6291 90.963 44.9868 94.3695 43.8585C94.7528 43.7343 95.1415 43.6317 95.5356 43.5345C95.568 43.4967 95.6597 43.5562 95.9998 43.6642Z" fill="#FFD600"/>
<path d="M47.1855 24.1613L44.7994 24.523C43.5037 22.7361 42.4348 21.1112 41.2147 19.605C40.5198 18.809 40.0395 17.8486 39.8194 16.8151C39.5993 15.7816 39.6466 14.7092 39.9568 13.6991C40.0756 13.2672 40.1728 12.8297 40.3078 12.4033C40.9556 10.3788 40.7235 8.59749 38.7314 7.18848C39.5241 7.33418 40.2392 7.75659 40.7494 8.38047C41.2595 9.00435 41.5316 9.78918 41.517 10.595C41.5274 11.7572 41.4408 12.9182 41.2579 14.066C41.1142 14.8836 41.1882 15.7247 41.4725 16.5046C41.7568 17.2845 42.2413 17.9757 42.8775 18.509C43.8938 19.3858 44.8347 20.3467 45.6901 21.3812C46.2947 22.1154 46.6186 23.0654 47.1855 24.1613Z" fill="#FFD600"/>
<path d="M71.6727 44.0424C71.5216 43.2218 71.4568 42.7412 71.338 42.2715C71.1545 41.5319 71.4244 41.2351 72.137 40.8842C73.3383 40.305 74.4523 39.5598 75.4463 38.6707C77.5247 36.7813 79.8191 36.155 82.513 36.9755C83.0528 37.1321 83.5548 37.2294 84.0731 37.3643C85.995 37.8664 87.4958 37.2239 88.6942 35.5342C88.574 36.2479 88.2252 36.9033 87.7005 37.4018C87.1757 37.9002 86.5034 38.2148 85.7844 38.2983C84.4045 38.3881 83.0189 38.3373 81.6492 38.147C80.8975 38.0202 80.126 38.0834 79.4048 38.3304C78.6836 38.5774 78.0355 39.0005 77.5194 39.5614C76.4852 40.6749 75.3874 41.7277 74.2316 42.7143C73.573 43.2542 72.6931 43.5295 71.6727 44.0424Z" fill="#FFD600"/>
<path d="M27.2956 48.8428L27.5979 51.0022C25.8272 52.3032 24.2239 53.3991 22.7393 54.6029C21.9713 55.2618 21.0532 55.7219 20.0659 55.9431C19.0785 56.1643 18.0519 56.1398 17.0762 55.8716C16.5363 55.7421 16.0289 55.6286 15.5107 55.4828C13.4107 54.889 11.5481 55.0781 10.1445 57.3778C10.6844 55.4344 11.9207 54.3763 13.6806 54.2845C14.6626 54.2384 15.6466 54.3089 16.6119 54.4949C18.9333 54.9321 20.7094 54.1763 22.167 52.3355C23.4249 50.7591 24.9418 49.3934 27.2956 48.8428Z" fill="#FFD600"/>
<path d="M89.5755 51.7204C88.3447 53.0916 86.8763 53.2103 85.2892 52.6219C84.3748 52.2587 83.5008 51.8008 82.6816 51.2559C81.9407 50.7458 81.0733 50.4502 80.175 50.4016C79.2768 50.353 78.3826 50.5535 77.5909 50.9807C76.3471 51.5911 75.0585 52.1055 73.7364 52.5194C72.9212 52.7569 72.0034 52.649 70.8535 52.7084C71.091 51.769 71.2153 51.0887 71.4528 50.4409C71.5284 50.2411 71.8954 50.079 72.1546 50.0305C73.4988 49.7659 74.924 49.7444 76.1819 49.2747C79.0755 48.195 81.5804 48.5405 83.9071 50.6135C85.5321 52.0657 87.373 52.8541 89.5755 51.7204Z" fill="#FFD600"/>
<path d="M24.1133 14.2137C26.1863 13.9762 27.5629 14.6456 28.3187 16.1949C28.7792 17.1151 29.1237 18.089 29.3445 19.094C29.8033 21.3614 31.0936 22.7003 33.3069 23.3535C34.5407 23.7553 35.7236 24.2988 36.8322 24.973C37.5359 25.4868 38.1885 26.0671 38.781 26.7059L36.8052 27.9367C34.9913 26.857 33.4365 25.842 31.8224 24.9459C29.7655 23.8014 28.4321 22.2035 28.1946 19.8012C28.1514 19.3531 28.0758 18.9105 28.0272 18.4624C27.8328 16.249 26.8611 14.6294 24.1133 14.2137Z" fill="#FFD600"/>
<path d="M29.2302 81.6207C28.2476 79.7744 28.8307 78.2519 30.1047 76.9455C30.8778 76.1997 31.7082 75.5156 32.5881 74.8994C33.1591 74.4967 33.621 73.9581 33.932 73.3323C34.243 72.7065 34.3934 72.0134 34.3695 71.315C34.2912 69.9287 34.2912 68.5391 34.3695 67.1528C34.4937 66.0731 34.9688 64.9933 35.3413 63.7139L37.2793 65.1175C36.9176 67.4065 36.5506 69.4361 36.286 71.4929C36.1815 72.4555 35.8417 73.3777 35.2966 74.1779C34.7515 74.9782 34.0178 75.632 33.1603 76.0817C32.8526 76.2598 32.5503 76.4542 32.2318 76.6215C30.2181 77.6688 28.8415 79.0996 29.2302 81.6207Z" fill="#FFD600"/>
<path d="M66.835 60.3571C67.2574 59.7454 67.7115 59.1562 68.1954 58.5918C68.3095 58.5098 68.4399 58.4535 68.5778 58.4265C68.7157 58.3995 68.8578 58.4023 68.9944 58.4352C70.4196 58.7213 71.8286 59.2398 73.2646 59.3262C76.061 59.4881 78.1232 60.6164 79.4729 63.1051C79.9775 64.149 80.6903 65.0783 81.5675 65.8365C82.3449 66.4304 83.5109 66.5168 84.4988 66.8245C83.9316 67.0887 83.3031 67.1932 82.681 67.1266C82.0589 67.06 81.4667 66.825 80.9683 66.4468C80.0569 65.7983 79.2689 64.992 78.6415 64.066C77.3242 62.0361 75.5751 61.2371 73.1836 61.4152C71.7569 61.487 70.3266 61.4184 68.9134 61.2101C68.2548 61.1291 67.6393 60.681 66.835 60.3571Z" fill="#FFD600"/>
<path d="M43.1312 67.7979C43.8179 67.9102 44.4948 68.0762 45.1556 68.2945C45.3074 68.383 45.4398 68.5014 45.5446 68.6424C45.6495 68.7835 45.7247 68.9442 45.7656 69.1151C46.0464 70.4161 46.0572 71.8144 46.5106 73.0237C47.5903 75.9011 47.342 78.4547 45.242 80.7814C44.7722 81.3232 44.3664 81.9172 44.0328 82.552C43.2446 83.9988 43.5253 85.3916 44.4916 86.8168C43.7959 86.3783 43.2757 85.7101 43.0213 84.9281C42.7669 84.1461 42.7943 83.2998 43.0988 82.5359C43.4308 81.6092 43.8711 80.7247 44.4106 79.9012C44.9839 79.0914 45.3186 78.1372 45.3768 77.1466C45.4351 76.1561 45.2145 75.1691 44.74 74.2977C44.1597 73.1355 43.6863 71.9231 43.3255 70.6753C43.0988 69.8547 43.196 68.9369 43.1312 67.7979Z" fill="#FFD600"/>
<path d="M54.4673 5.73535C56.0869 7.27392 56.4162 9.0284 55.547 10.9557C55.1522 11.809 54.6976 12.6334 54.1867 13.4227C53.7624 14.0532 53.5119 14.7845 53.4607 15.5428C53.4095 16.3011 53.5594 17.0596 53.8951 17.7415C54.5584 19.2042 55.1369 20.7038 55.628 22.2329C55.8602 22.9941 55.7414 23.8526 55.79 24.8945C55.0996 24.7956 54.4187 24.6384 53.7548 24.4248C53.6007 24.3377 53.4667 24.2191 53.3616 24.0768C53.2565 23.9345 53.1826 23.7717 53.1447 23.5989C52.891 22.3411 52.9558 20.9698 52.4807 19.82C51.2013 16.7266 51.7519 14.0974 53.8627 11.6033C55.6496 9.5141 55.7306 8.40761 54.4673 5.73535Z" fill="#FFD600"/>
<path d="M67.8262 33.6874C68.8411 32.0678 69.7588 30.8099 70.4444 29.4387C71.7239 26.8906 73.5324 25.2117 76.5177 25.039C77.3662 24.9934 78.205 24.8354 79.0119 24.5692C80.4371 24.0834 81.2253 22.982 81.5384 21.4219C81.7058 22.0935 81.65 22.8016 81.3792 23.4387C81.1084 24.0757 80.6374 24.607 80.0376 24.9525C79.1196 25.5098 78.1138 25.9078 77.063 26.1295C74.3638 26.6046 72.9278 28.197 72.2476 30.7343C71.8093 32.6843 70.6529 34.3978 69.0085 35.5336L67.8262 33.6874Z" fill="#FFD600"/>
<path d="M69.5099 10.8213C70.4708 12.538 70.3034 14.19 69.105 15.4532C68.2498 16.307 67.3273 17.0905 66.3463 17.7961C65.7089 18.2599 65.2031 18.8816 64.8784 19.5999C64.5538 20.3183 64.4215 21.1088 64.4947 21.8938C64.5957 23.1514 64.5957 24.4151 64.4947 25.6727C64.276 26.8264 63.9692 27.9616 63.5769 29.0684L61.5957 27.6107C61.9088 25.6672 62.2867 24.0207 62.4163 22.358C62.6268 19.6587 63.6903 17.6343 66.1574 16.4196C66.6379 16.1821 67.0644 15.8365 67.5287 15.5666C69.1968 14.5571 69.9849 13.1264 69.5099 10.8213Z" fill="#FFD600"/>
<path d="M31.0665 59.0945C30.0732 60.6439 29.1177 61.8425 28.486 63.1921C27.1904 65.9616 25.2469 67.5649 22.0834 67.716C19.8322 67.824 17.9482 68.6068 17.3543 71.4248C17.079 69.7027 17.662 68.4017 19.1034 67.6459C20.2248 67.091 21.4057 66.6653 22.6233 66.3772C23.5002 66.1806 24.3078 65.7507 24.9607 65.133C25.6135 64.5153 26.0873 63.7329 26.332 62.8682C26.7626 61.5992 27.3046 60.3708 27.9516 59.1973C28.3673 58.4469 29.0798 57.8583 29.8194 57.0107L31.0665 59.0945Z" fill="#FFD600"/>
<path d="M9.26367 41.0774C9.64265 40.5455 10.1782 40.145 10.7956 39.9321C11.4131 39.7191 12.0816 39.7043 12.7079 39.8896C13.8298 40.1808 14.8953 40.657 15.8606 41.2985C17.8365 42.659 19.7421 42.5673 21.799 41.5524C22.9996 40.9662 24.252 40.4926 25.5402 40.1379C26.2312 39.949 27.0139 40.1055 27.9425 40.1055C27.8321 40.8079 27.6752 41.5023 27.4728 42.184C27.3864 42.4107 26.9762 42.5942 26.6846 42.659C25.2972 42.9559 23.8558 43.0532 22.5278 43.4959C19.9635 44.3543 17.6097 44.3379 15.5097 42.47C15.2074 42.2055 14.8457 42.0112 14.5326 41.7575C12.9077 40.4942 11.2341 39.8843 9.26367 41.0774Z" fill="#FFD600"/>
<path d="M60.3723 85.6537C58.4774 85.1138 57.4517 83.8506 57.3761 82.0205C57.3629 80.9451 57.4552 79.8711 57.6514 78.8138C57.8059 78.0192 57.7546 77.1984 57.5023 76.4293C57.25 75.6601 56.8051 74.9683 56.21 74.4196C55.0046 73.2297 53.8604 71.979 52.782 70.6728C52.3609 70.133 52.2422 69.4096 51.8643 68.5783C52.5761 68.4215 53.2974 68.3115 54.0237 68.249C54.1789 68.2831 54.3256 68.3486 54.4546 68.4415C54.5837 68.5343 54.6924 68.6525 54.7741 68.7889C55.6702 70.1061 56.426 71.5312 57.4301 72.7621C58.9363 74.603 59.5193 76.5789 58.8931 78.8894C58.7797 79.3213 58.6933 79.764 58.58 80.1958C58.0131 82.2635 58.0563 84.1799 60.3723 85.6537Z" fill="#FFD600"/>
<path d="M74.3267 78.5891C72.4642 78.7402 71.2172 77.8385 70.4452 76.2784C70.0719 75.513 69.8083 74.6988 69.6624 73.8599C69.2359 71.4953 67.8862 70.081 65.6081 69.336C64.3765 68.9287 63.1942 68.3855 62.0829 67.7164C61.4211 67.2278 60.8178 66.6645 60.2852 66.0376C62.0883 64.4666 62.1747 64.5312 63.6862 65.7621C64.6433 66.4967 65.6834 67.1163 66.785 67.6083C67.9077 68.0803 68.8738 68.8608 69.5713 69.8592C70.2687 70.8576 70.669 72.0333 70.7258 73.2499C70.7908 73.9184 70.899 74.5821 71.0498 75.2366C71.4331 77.0289 72.5937 78.0816 74.3267 78.5891Z" fill="#FFD600"/>
<path d="M14.3057 26.1299C15.9252 25.2445 17.6095 25.5901 18.9969 27.0854C19.6707 27.8057 20.2931 28.5723 20.8594 29.3798C21.2924 30.0109 21.8815 30.5191 22.5693 30.8549C23.2571 31.1908 24.0201 31.3428 24.7841 31.2962C26.2576 31.2286 27.7338 31.245 29.2055 31.3449C30.1287 31.4421 31.014 31.9226 32.1261 32.3005L30.6847 34.19C28.7412 33.8876 27.0137 33.5151 25.2862 33.3694C24.0027 33.3154 22.7599 32.9034 21.6982 32.1803C20.6364 31.4572 19.798 30.4518 19.2777 29.2773C18.2735 27.2852 16.9293 25.7358 14.3057 26.1299Z" fill="#FFD600"/>
<path d="M42.1138 48.4119C43.1592 46.769 44.1162 45.0715 44.9805 43.3266C45.2762 42.6824 45.3223 41.9515 45.1099 41.2752C44.8975 40.599 44.4416 40.0255 43.8306 39.6662C43.221 39.3196 42.5138 39.1848 41.8195 39.2824C41.1251 39.3801 40.4826 39.7048 39.9923 40.2061C39.5561 40.6318 39.2385 41.1642 39.0709 41.7502C38.9033 42.3363 38.8915 42.9557 39.0367 43.5477C39.1393 43.9742 39.258 44.3899 39.4092 44.9514C37.5413 43.2347 37.3416 40.8595 38.7668 38.7919C39.5218 37.747 40.623 37.0038 41.8744 36.6944C43.1258 36.385 44.4464 36.5293 45.6013 37.1019C48.5381 38.5379 49.4882 41.5396 48.2196 45.5345C49.3964 45.8044 50.325 45.2753 51.1132 44.5897C52.2576 43.591 53.2725 42.4304 54.3954 41.4155C58.3525 37.7229 63.3138 38.862 65.2842 43.8988C66.6824 47.4726 65.6189 51.8723 62.8225 54.0803C60.8088 55.6675 58.5037 55.9483 56.5548 54.8416C54.363 53.5892 52.954 50.8357 53.2509 48.6979C53.831 49.8665 54.5026 50.9875 55.2592 52.0504C57.2351 54.4743 60.4471 54.2098 61.9533 51.462C63.2544 49.1191 63.0655 46.6735 61.7266 44.4007C60.7819 42.7812 59.3243 42.5437 57.6832 43.4884C57.2554 43.7355 56.8425 44.0079 56.4469 44.3037C54.6168 45.6911 52.7705 47.0352 50.0874 47.0676L50.9188 47.9801C51.9464 48.9975 52.7079 50.252 53.1362 51.6331C53.5646 53.0142 53.6466 54.4794 53.3751 55.8997C52.4304 61.2172 46.3031 63.4575 41.8007 60.2562C38.648 58.005 37.1419 54.7822 36.2241 51.1868C35.992 50.2745 35.9218 49.3081 35.6033 48.4335C35.2913 47.5119 34.8338 46.6462 34.2483 45.8692C34.1263 45.6886 33.964 45.5387 33.7743 45.4314C33.5846 45.3241 33.3726 45.2621 33.1549 45.2506C32.9372 45.2391 32.7199 45.2782 32.5199 45.365C32.3199 45.4517 32.1428 45.5836 32.0025 45.7503C31.3007 46.4899 31.4626 47.37 32.1105 48.0502C32.5845 48.4904 33.0876 48.8979 33.6166 49.2702C33.0303 49.2617 32.4592 49.0835 31.9723 48.7567C31.4855 48.4299 31.1041 47.9689 30.8742 47.4295C30.6485 47.0073 30.5695 46.5218 30.6496 46.0498C30.7297 45.5778 30.9644 45.146 31.3168 44.822C31.6832 44.4191 32.1628 44.1364 32.6928 44.0111C33.2227 43.8859 33.7781 43.9238 34.286 44.12C35.8354 44.6059 36.6722 45.8367 37.266 47.2241C37.8598 48.6115 38.2593 50.0097 38.8208 51.3755C39.7655 53.6861 40.9802 55.8457 43.1666 57.2061C44.7268 58.167 46.4057 58.6745 48.1062 57.611C49.8068 56.5475 50.0874 54.9116 49.9417 53.1409C49.7026 50.8497 48.7401 48.6942 47.1938 46.9866C45.5905 48.1149 44.0249 49.0003 42.1138 48.4119Z" fill="#FC2D2F"/>
<path d="M60.3998 33.2334C60.2778 34.3821 59.8752 35.4831 59.2276 36.4395C58.5799 37.396 57.7069 38.1787 56.6856 38.7184C54.3696 40.041 50.7473 39.609 48.8254 37.9355C47.3354 36.6398 46.7902 35.0202 47.3408 33.3143C49.1601 35.2416 51.3141 36.386 53.9594 36.3968C56.6047 36.4076 58.6075 35.1121 60.3998 33.2334Z" fill="#FC2D2F"/>
<path d="M54.026 30.0956C53.8532 30.9918 52.5684 31.715 53.6804 32.6219C53.8814 32.7167 54.1007 32.7659 54.3228 32.7659C54.545 32.7659 54.7644 32.7167 54.9653 32.6219C55.1772 31.9177 55.32 31.1945 55.3918 30.4625C56.4715 30.6353 57.2704 31.8502 56.9141 33.3779C56.5146 35.0677 54.5172 36.077 52.7519 35.4994C52.3315 35.3499 51.9457 35.1169 51.6178 34.8143C51.2899 34.5117 51.0267 34.1457 50.8441 33.7385C50.6614 33.3314 50.5632 32.8917 50.5552 32.4456C50.5472 31.9995 50.6297 31.5563 50.7977 31.1429C51.4293 29.7609 52.6601 29.3344 54.026 30.0956Z" fill="#FC2D2F"/>
</g>
<defs>
<filter id="filter0_dddddddd_170_39" x="0.418871" y="0" width="98.1623" height="97.9044" filterUnits="userSpaceOnUse" color-interpolation-filters="sRGB">
<feFlood flood-opacity="0" result="BackgroundImageFix"/>
<feColorMatrix in="SourceAlpha" type="matrix" values="0 0 0 0 0 0 0 0 0 0 0 0 0 0 0 0 0 0 127 0" result="hardAlpha"/>
<feOffset dy="2.58113"/>
<feGaussianBlur stdDeviation="1.29056"/>
<feComposite in2="hardAlpha" operator="out"/>
<feColorMatrix type="matrix" values="0 0 0 0 0 0 0 0 0 0 0 0 0 0 0 0 0 0 0.25 0"/>
<feBlend mode="normal" in2="BackgroundImageFix" result="effect1_dropShadow_170_39"/>
<feColorMatrix in="SourceAlpha" type="matrix" values="0 0 0 0 0 0 0 0 0 0 0 0 0 0 0 0 0 0 127 0" result="hardAlpha"/>
<feOffset dy="2.58113"/>
<feGaussianBlur stdDeviation="1.29056"/>
<feComposite in2="hardAlpha" operator="out"/>
<feColorMatrix type="matrix" values="0 0 0 0 0 0 0 0 0 0 0 0 0 0 0 0 0 0 0.25 0"/>
<feBlend mode="normal" in2="effect1_dropShadow_170_39" result="effect2_dropShadow_170_39"/>
<feColorMatrix in="SourceAlpha" type="matrix" values="0 0 0 0 0 0 0 0 0 0 0 0 0 0 0 0 0 0 127 0" result="hardAlpha"/>
<feOffset dy="2.58113"/>
<feGaussianBlur stdDeviation="1.29056"/>
<feComposite in2="hardAlpha" operator="out"/>
<feColorMatrix type="matrix" values="0 0 0 0 0 0 0 0 0 0 0 0 0 0 0 0 0 0 0.25 0"/>
<feBlend mode="normal" in2="effect2_dropShadow_170_39" result="effect3_dropShadow_170_39"/>
<feColorMatrix in="SourceAlpha" type="matrix" values="0 0 0 0 0 0 0 0 0 0 0 0 0 0 0 0 0 0 127 0" result="hardAlpha"/>
<feOffset dy="2.58113"/>
<feGaussianBlur stdDeviation="1.29056"/>
<feComposite in2="hardAlpha" operator="out"/>
<feColorMatrix type="matrix" values="0 0 0 0 0 0 0 0 0 0 0 0 0 0 0 0 0 0 0.25 0"/>
<feBlend mode="normal" in2="effect3_dropShadow_170_39" result="effect4_dropShadow_170_39"/>
<feColorMatrix in="SourceAlpha" type="matrix" values="0 0 0 0 0 0 0 0 0 0 0 0 0 0 0 0 0 0 127 0" result="hardAlpha"/>
<feOffset dy="2.58113"/>
<feGaussianBlur stdDeviation="1.29056"/>
<feComposite in2="hardAlpha" operator="out"/>
<feColorMatrix type="matrix" values="0 0 0 0 0 0 0 0 0 0 0 0 0 0 0 0 0 0 0.25 0"/>
<feBlend mode="normal" in2="effect4_dropShadow_170_39" result="effect5_dropShadow_170_39"/>
<feColorMatrix in="SourceAlpha" type="matrix" values="0 0 0 0 0 0 0 0 0 0 0 0 0 0 0 0 0 0 127 0" result="hardAlpha"/>
<feOffset dy="2.58113"/>
<feGaussianBlur stdDeviation="1.29056"/>
<feComposite in2="hardAlpha" operator="out"/>
<feColorMatrix type="matrix" values="0 0 0 0 0 0 0 0 0 0 0 0 0 0 0 0 0 0 0.25 0"/>
<feBlend mode="normal" in2="effect5_dropShadow_170_39" result="effect6_dropShadow_170_39"/>
<feColorMatrix in="SourceAlpha" type="matrix" values="0 0 0 0 0 0 0 0 0 0 0 0 0 0 0 0 0 0 127 0" result="hardAlpha"/>
<feOffset dy="2.58113"/>
<feGaussianBlur stdDeviation="1.29056"/>
<feComposite in2="hardAlpha" operator="out"/>
<feColorMatrix type="matrix" values="0 0 0 0 0 0 0 0 0 0 0 0 0 0 0 0 0 0 0.25 0"/>
<feBlend mode="normal" in2="effect6_dropShadow_170_39" result="effect7_dropShadow_170_39"/>
<feColorMatrix in="SourceAlpha" type="matrix" values="0 0 0 0 0 0 0 0 0 0 0 0 0 0 0 0 0 0 127 0" result="hardAlpha"/>
<feOffset dy="2.58113"/>
<feGaussianBlur stdDeviation="1.29056"/>
<feComposite in2="hardAlpha" operator="out"/>
<feColorMatrix type="matrix" values="0 0 0 0 0 0 0 0 0 0 0 0 0 0 0 0 0 0 0.25 0"/>
<feBlend mode="normal" in2="effect7_dropShadow_170_39" result="effect8_dropShadow_170_39"/>
<feBlend mode="normal" in="SourceGraphic" in2="effect8_dropShadow_170_39" result="shape"/>
</filter>
</defs>
</svg>
